<svg xmlns="http://www.w3.org/2000/svg" width="65" height="20" viewBox="0 0 65 20">
    <title>Go to Baxi Homepage</title>
    <g id="baxi-logo-fill" data-change="color" fill="#005B99" fill-rule="evenodd">
      <path d="M57.238271 0L64.531028 0 64.531028 19.6709091 58.9331308 19.6709091 58.9331308 3.52484848C58.9331308.487272727 57.6434579.156969697 57.238271 0M56.6998645 0L47.8015467 0C49.1689766.454545455 49.1671542 1.87272727 48.3847243 2.77939394 48.2699112 2.91090909 47.1770607 4.18606061 45.6389299 5.98121212L42.1836028 0 35.4588364 0 42.3530888 9.81454545C38.3789766 14.4527273 33.9073411 19.6709091 33.9073411 19.6709091L42.5997243 19.6709091C42.4022944 19.4848485 41.0221075 18.2866667 42.3251449 16.7666667 42.438743 16.6339394 43.9057991 14.9230303 45.8624813 12.6406061L49.9386495 19.6709091 56.6634159 19.6709091 49.0918271 8.87333333C52.8211262 4.52424242 56.6998645 0 56.6998645 0"/>
      <path d="M25.0686776 11.4852727L29.9497523 11.4852727 27.318771 4.60406061 25.0686776 11.4852727zM33.0806869 19.6707273L31.427743 15.3131515 23.8154533 15.3131515C23.8154533 15.3131515 23.3355467 16.7489091 23.2146589 17.1325455 22.7590514 18.5828485 24.0171355 19.6216364 24.0876028 19.6707273L17.3561542 19.6707273C17.3561542 19.6707273 22.5421822 3.82769697 22.8653598 2.84224242 23.6070888.579818182 22.4492383.0986060606 22.1813411-.000181818182L30.6161542-.000181818182 38.1385374 19.6707273 33.0806869 19.6707273zM6.90221028 15.8454545L10.2931449 15.8454545C11.5658084 15.8454545 12.1738925 14.9490909 12.1738925 13.7369697 12.1738925 12.7484848 11.7808551 11.4848485 9.90375234 11.4848485L6.90221028 11.4848485 6.90221028 15.8454545zM6.90221028 7.65636364L10.1370234 7.65636364C10.9115561 7.65636364 11.8221636 7.13090909 11.8221636 5.74242424 11.8221636 4.4169697 11.1946402 3.82787879 9.90375234 3.82787879L6.90221028 3.82787879 6.90221028 7.65636364zM.0000607476635 0L10.7445 0C14.8048738 0 16.8563224 1.6 16.8563224 5.1169697 16.8563224 8.79939394 14.4652944 9.19939394 13.7029112 9.43818182 14.3741729 9.6769697 17.3502009 10.5509091 17.3502009 14.3654545 17.3502009 17.8739394 14.4458551 19.6709091 11.7650607 19.6709091L1.8109486 19.6709091 1.8109486 3.52484848C1.8109486.487272727.405247664.156969697.0000607476635 0L.0000607476635 0z"/>
    </g>
  </svg>