<svg width="135" height="32" viewBox="0 0 135 32" fill="none" xmlns="http://www.w3.org/2000/svg">
<path d="M0 0H134.4V3.2H0V0ZM0 28.8H134.4V32H0V28.8ZM31.36 20.3733C31.2533 18.6667 30.72 16.8533 29.0133 16.4267C30.72 15.68 31.7867 13.9733 31.5733 12.16C31.68 9.6 29.6533 7.46667 27.0933 7.36H4.37333V24.4267H21.5467V17.8133H25.1733C26.9867 17.8133 27.6267 18.56 27.9467 20.3733C27.9467 21.76 28.16 23.1467 28.48 24.4267H32.1067C31.4667 23.4667 31.4667 21.44 31.36 20.3733ZM18.3467 21.3333H7.36V10.3467H18.3467V21.3333ZM25.4933 15.1467H21.5467V10.3467H25.4933C27.0933 10.3467 27.9467 11.0933 27.9467 12.6933C27.9467 14.2933 27.0933 15.04 25.4933 15.1467ZM44.8 24.2133H48.2133V18.7733C48.2133 16.64 49.0667 14.9333 51.52 14.9333C51.9467 14.9333 52.3733 14.9333 52.6933 15.04V11.9467C52.48 11.84 52.16 11.84 51.9467 11.84C50.24 11.84 48.7467 12.9067 48 14.4V12.16H44.8V24.2133ZM66.1333 18.9867C66.3467 15.2533 64.32 11.84 60.16 11.84C56.7467 11.7333 53.9733 14.4 53.8667 17.8133V18.24C53.8667 21.9733 56.2133 24.5333 60.16 24.5333C62.8267 24.7467 65.28 23.04 65.92 20.48H62.9333C62.5067 21.44 61.44 22.08 60.2667 22.08C58.3467 22.08 57.3867 21.12 57.28 18.9867H66.1333ZM57.28 16.8533C57.28 15.36 58.56 14.2933 59.9467 14.2933H60.0533C61.6533 14.2933 62.4 15.1467 62.72 16.8533H57.28ZM68.5867 24.2133H72V17.1733C72 14.8267 73.6 14.4 74.24 14.4C76.3733 14.4 76.2667 16 76.2667 17.3867V24.2133H79.68V17.4933C79.68 16 80 14.4 81.92 14.4C83.84 14.4 83.9467 15.68 83.9467 17.3867V24.2133H87.36V16.1067C87.36 12.9067 85.44 11.7333 82.88 11.7333C81.3867 11.7333 80 12.48 79.1467 13.76C78.5067 12.3733 77.0133 11.6267 75.52 11.7333C74.0267 11.7333 72.64 12.48 71.7867 13.6533V12.0533H68.5867V24.2133ZM101.76 18.9867C101.973 15.2533 99.9467 11.84 95.7867 11.84C92.3733 11.7333 89.6 14.4 89.4933 17.8133V18.24C89.4933 21.9733 91.84 24.5333 95.7867 24.5333C98.4533 24.7467 100.907 23.04 101.547 20.48H98.56C98.1333 21.44 97.0667 22.08 95.8933 22.08C93.9733 22.08 93.0133 21.12 92.9067 18.9867H101.76ZM92.9067 16.8533C92.9067 15.36 94.1867 14.2933 95.5733 14.2933H95.68C97.28 14.2933 98.0267 15.1467 98.3467 16.8533H92.9067ZM104.107 24.2133H107.52V17.92C107.52 15.4667 108.267 14.5067 110.08 14.5067C111.68 14.5067 112.213 15.4667 112.213 17.4933V24.32H115.627V16.96C115.627 13.9733 114.773 11.9467 111.147 11.9467C109.653 11.9467 108.373 12.6933 107.52 13.9733H107.413V7.46667H104L104.107 24.2133ZM126.293 19.52C126.507 20.9067 125.547 22.08 124.16 22.2933H123.627C122.56 22.2933 121.6 21.9733 121.6 20.8C121.6 19.6267 122.56 19.2 123.627 18.9867C124.587 18.9867 125.547 18.6667 126.4 18.24L126.293 19.52ZM121.92 15.7867C122.027 14.5067 122.88 13.9733 124.16 13.9733C125.44 13.9733 126.293 14.1867 126.293 15.5733C126.293 16.96 124.373 16.8533 122.347 17.1733C120.32 17.4933 118.187 18.1333 118.187 20.8C118.187 23.2533 120 24.4267 122.347 24.4267C123.84 24.5333 125.333 24 126.507 22.9333C126.507 23.36 126.613 23.68 126.72 24.1067H130.133C129.813 23.2533 129.6 22.2933 129.707 21.44V15.1467C129.707 12.2667 126.72 11.7333 124.373 11.7333C121.6 11.7333 118.827 12.6933 118.613 15.7867H121.92Z" fill="#222222"/>
</svg>
